<svg width="36" height="36" viewBox="0 0 36 36" fill="none" xmlns="http://www.w3.org/2000/svg">
<path d="M18.4419 34.3495C19.5938 33.6167 20.7492 32.8874 21.9012 32.1546C22.4227 31.824 22.951 31.4968 23.4588 31.1424C24.6653 30.3005 25.7968 29.3428 26.8023 28.2658C28.7927 26.1288 30.306 23.5965 31.2637 20.8392C32.0442 18.5864 32.3782 16.2109 32.3782 13.8319C32.3782 12.3595 32.3782 10.8872 32.3782 9.41482C32.3782 9.37392 32.3782 9.33643 32.3782 9.29554C32.3782 8.68546 31.9521 8.15377 31.3761 7.97995C30.9603 7.85385 30.5479 7.72434 30.1492 7.55733C30.2582 7.60164 30.3673 7.64935 30.4764 7.69366C29.764 7.39033 29.096 7.00179 28.4825 6.53145C28.5746 6.60303 28.6666 6.6746 28.7586 6.74617C28.1519 6.27583 27.6066 5.73392 27.1363 5.12726C27.2079 5.21928 27.2794 5.3113 27.351 5.40332C26.8807 4.78984 26.4887 4.11842 26.1854 3.4061C26.2297 3.51516 26.2774 3.62422 26.3217 3.73329C26.2195 3.48789 26.124 3.23568 26.0422 2.98347C25.8582 2.40748 25.3435 1.98145 24.7267 1.98145C24.2631 1.98145 23.7996 1.98145 23.3361 1.98145C22.225 1.98145 21.1105 1.98145 19.9994 1.98145C18.66 1.98145 17.3205 1.98145 15.9811 1.98145C14.8189 1.98145 13.6567 1.98145 12.4945 1.98145C11.9321 1.98145 11.3664 1.96441 10.804 1.98145C10.7972 1.98145 10.787 1.98145 10.7801 1.98145C10.1598 1.98145 9.6486 2.40748 9.46455 2.98347C9.38275 3.23909 9.29073 3.48789 9.18508 3.73329C9.22938 3.62422 9.2771 3.51516 9.32141 3.4061C9.01807 4.11842 8.62613 4.78643 8.15579 5.40332C8.22736 5.3113 8.29893 5.21928 8.37051 5.12726C7.90017 5.73392 7.35485 6.27583 6.74818 6.74617C6.84021 6.6746 6.93223 6.60303 7.02425 6.53145C6.41077 7.00179 5.73934 7.39033 5.03043 7.69366C5.13949 7.64935 5.24856 7.60164 5.35762 7.55733C4.95545 7.72434 4.54646 7.85385 4.13065 7.97995C3.55466 8.15377 3.12863 8.68546 3.12863 9.29554C3.12863 10.6656 3.12863 12.0358 3.12863 13.4059C3.12863 14.1284 3.12863 14.851 3.17976 15.5735C3.28882 17.0425 3.53762 18.508 3.95002 19.9224C4.768 22.7308 6.18582 25.3177 8.06717 27.5501C9.52931 29.2849 11.2914 30.6891 13.2 31.899C14.4576 32.6965 15.7153 33.494 16.9729 34.2916C17.0036 34.312 17.0377 34.3325 17.0683 34.3529C17.6716 34.7346 18.5986 34.4995 18.9326 33.8621C19.2871 33.1873 19.086 32.4068 18.4419 31.9978C17.8284 31.6093 17.2149 31.2207 16.6048 30.8322C15.8209 30.3346 15.0404 29.8404 14.2565 29.3428C13.7078 28.9952 13.1727 28.6237 12.6547 28.2283C12.7467 28.2999 12.8387 28.3715 12.9307 28.443C11.6424 27.4444 10.4836 26.2856 9.485 24.9973C9.55658 25.0893 9.62815 25.1813 9.69972 25.2734C8.68407 23.9544 7.83882 22.5093 7.18785 20.9756C7.23215 21.0846 7.27987 21.1937 7.32418 21.3028C6.65957 19.7248 6.20627 18.0683 5.97792 16.371C5.99496 16.4903 6.012 16.613 6.02564 16.7323C5.87908 15.628 5.85522 14.5238 5.85522 13.4161C5.85522 12.3391 5.85522 11.2621 5.85522 10.1851C5.85522 9.89198 5.85522 9.60228 5.85522 9.30917C5.52122 9.74883 5.18721 10.1851 4.8532 10.6247C6.02905 10.2703 7.1674 9.79995 8.16601 9.08082C9.34867 8.22876 10.3575 7.17902 11.1073 5.92479C11.5197 5.23632 11.8503 4.48651 12.0957 3.72306C11.6561 4.05707 11.2198 4.39108 10.7801 4.72508C11.2437 4.72508 11.7072 4.72508 12.1707 4.72508C13.2818 4.72508 14.3963 4.72508 15.5074 4.72508C16.8468 4.72508 18.1862 4.72508 19.5257 4.72508C20.6879 4.72508 21.8501 4.72508 23.0123 4.72508C23.5747 4.72508 24.1404 4.73872 24.7028 4.72508C24.7096 4.72508 24.7198 4.72508 24.7267 4.72508C24.287 4.39108 23.8507 4.05707 23.4111 3.72306C24.2665 6.39171 26.2092 8.71273 28.7586 9.91243C29.3721 10.2021 30.0026 10.4271 30.6536 10.6247C30.3196 10.1851 29.9856 9.74883 29.6516 9.30917C29.6516 10.0726 29.6516 10.8361 29.6516 11.5995C29.6516 12.4482 29.6516 13.2968 29.6516 14.1421C29.6516 15.0077 29.5936 15.8734 29.4812 16.7323C29.4982 16.613 29.5152 16.4903 29.5289 16.371C29.2971 18.0649 28.8438 19.7248 28.1826 21.3028C28.2269 21.1937 28.2746 21.0846 28.3189 20.9756C27.668 22.5093 26.8227 23.9544 25.8071 25.2734C25.8786 25.1813 25.9502 25.0893 26.0218 24.9973C25.0232 26.2856 23.8644 27.4444 22.5761 28.443C22.6681 28.3715 22.7601 28.2999 22.8521 28.2283C22.0887 28.8179 21.2775 29.3258 20.4664 29.8438C19.5666 30.4164 18.6668 30.9856 17.767 31.5582C17.5353 31.7047 17.3001 31.8547 17.0683 32.0012C16.7718 32.1887 16.5367 32.4716 16.4412 32.8158C16.3526 33.143 16.3935 33.5758 16.5776 33.8655C16.9661 34.4654 17.7977 34.7585 18.4419 34.3495Z" fill="white"/>
<path d="M10.8054 18.1912C11.971 19.3569 13.1366 20.5225 14.3057 21.6915C14.4727 21.8585 14.6397 22.0255 14.8033 22.1891C15.3247 22.7106 16.2109 22.7106 16.7323 22.1891C17.6321 21.2893 18.5353 20.3861 19.4351 19.4864C20.8597 18.0617 22.2878 16.6337 23.7124 15.209C24.0396 14.8818 24.3702 14.5512 24.6974 14.224C25.2018 13.7196 25.2393 12.7926 24.6974 12.295C24.1521 11.794 23.3069 11.7565 22.7683 12.295C21.8686 13.1947 20.9654 14.0979 20.0656 14.9977C18.641 16.4224 17.2129 17.8504 15.7883 19.2751C15.4611 19.6022 15.1305 19.9328 14.8033 20.26C15.4474 20.26 16.0882 20.26 16.7323 20.26C15.5667 19.0944 14.4011 17.9288 13.2321 16.7598C13.0651 16.5928 12.8981 16.4258 12.7345 16.2622C12.2301 15.7577 11.303 15.7203 10.8054 16.2622C10.3044 16.8075 10.2669 17.6493 10.8054 18.1912Z" fill="white"/>
</svg>
