<svg width="1296" height="24" viewBox="0 0 1296 24" fill="none" xmlns="http://www.w3.org/2000/svg">
<path d="M856.03 18H852.263V6.36364H856.149C857.289 6.36364 858.268 6.59659 859.087 7.0625C859.905 7.52462 860.532 8.18939 860.967 9.05682C861.407 9.92045 861.626 10.9564 861.626 12.1648C861.626 13.3769 861.405 14.4186 860.962 15.2898C860.522 16.161 859.886 16.8314 859.053 17.3011C858.219 17.767 857.212 18 856.03 18ZM854.018 16.4659H855.933C856.82 16.4659 857.556 16.2992 858.143 15.9659C858.731 15.6288 859.17 15.142 859.462 14.5057C859.753 13.8655 859.899 13.0852 859.899 12.1648C859.899 11.2519 859.753 10.4773 859.462 9.84091C859.174 9.20455 858.744 8.72159 858.172 8.39205C857.6 8.0625 856.89 7.89773 856.041 7.89773H854.018V16.4659ZM867.435 18.1761C866.575 18.1761 865.834 17.9924 865.213 17.625C864.596 17.2538 864.118 16.733 863.781 16.0625C863.448 15.3883 863.281 14.5985 863.281 13.6932C863.281 12.7992 863.448 12.0114 863.781 11.3295C864.118 10.6477 864.588 10.1155 865.19 9.73295C865.796 9.35038 866.505 9.15909 867.315 9.15909C867.808 9.15909 868.285 9.24053 868.747 9.40341C869.209 9.56629 869.624 9.82197 869.991 10.1705C870.359 10.5189 870.649 10.9716 870.861 11.5284C871.073 12.0814 871.179 12.7538 871.179 13.5455V14.1477H864.241V12.875H869.514C869.514 12.428 869.423 12.0322 869.241 11.6875C869.06 11.339 868.804 11.0644 868.474 10.8636C868.149 10.6629 867.766 10.5625 867.327 10.5625C866.849 10.5625 866.433 10.6799 866.077 10.9148C865.724 11.1458 865.452 11.4489 865.259 11.8239C865.069 12.1951 864.974 12.5985 864.974 13.0341V14.0284C864.974 14.6117 865.077 15.108 865.281 15.517C865.49 15.9261 865.779 16.2386 866.151 16.4545C866.522 16.6667 866.955 16.7727 867.452 16.7727C867.774 16.7727 868.067 16.7273 868.332 16.6364C868.598 16.5417 868.827 16.4015 869.02 16.2159C869.213 16.0303 869.361 15.8011 869.463 15.5284L871.071 15.8182C870.942 16.2917 870.711 16.7064 870.378 17.0625C870.048 17.4148 869.634 17.6894 869.134 17.8864C868.637 18.0795 868.071 18.1761 867.435 18.1761ZM873.064 18V9.27273H874.695V10.6932H874.803C874.984 10.2121 875.282 9.83712 875.695 9.56818C876.107 9.29545 876.602 9.15909 877.178 9.15909C877.761 9.15909 878.25 9.29545 878.643 9.56818C879.041 9.84091 879.335 10.2159 879.524 10.6932H879.615C879.823 10.2273 880.155 9.85606 880.609 9.57955C881.064 9.29924 881.606 9.15909 882.234 9.15909C883.026 9.15909 883.672 9.4072 884.172 9.90341C884.676 10.3996 884.928 11.1477 884.928 12.1477V18H883.229V12.3068C883.229 11.7159 883.068 11.2879 882.746 11.0227C882.424 10.7576 882.039 10.625 881.592 10.625C881.039 10.625 880.609 10.7955 880.303 11.1364C879.996 11.4735 879.842 11.9072 879.842 12.4375V18H878.149V12.1989C878.149 11.7254 878.001 11.3447 877.706 11.0568C877.411 10.7689 877.026 10.625 876.553 10.625C876.231 10.625 875.933 10.7102 875.661 10.8807C875.392 11.0473 875.174 11.2803 875.007 11.5795C874.844 11.8788 874.763 12.2254 874.763 12.6193V18H873.064ZM890.881 18.1761C890.063 18.1761 889.348 17.9886 888.739 17.6136C888.129 17.2386 887.655 16.714 887.318 16.0398C886.981 15.3655 886.812 14.5777 886.812 13.6761C886.812 12.7708 886.981 11.9792 887.318 11.3011C887.655 10.6231 888.129 10.0966 888.739 9.72159C889.348 9.34659 890.063 9.15909 890.881 9.15909C891.699 9.15909 892.413 9.34659 893.023 9.72159C893.633 10.0966 894.106 10.6231 894.443 11.3011C894.78 11.9792 894.949 12.7708 894.949 13.6761C894.949 14.5777 894.78 15.3655 894.443 16.0398C894.106 16.714 893.633 17.2386 893.023 17.6136C892.413 17.9886 891.699 18.1761 890.881 18.1761ZM890.886 16.75C891.417 16.75 891.856 16.6098 892.205 16.3295C892.553 16.0492 892.811 15.6761 892.977 15.2102C893.148 14.7443 893.233 14.2311 893.233 13.6705C893.233 13.1136 893.148 12.6023 892.977 12.1364C892.811 11.6667 892.553 11.2898 892.205 11.0057C891.856 10.7216 891.417 10.5795 890.886 10.5795C890.352 10.5795 889.909 10.7216 889.557 11.0057C889.208 11.2898 888.949 11.6667 888.778 12.1364C888.612 12.6023 888.528 13.1136 888.528 13.6705C888.528 14.2311 888.612 14.7443 888.778 15.2102C888.949 15.6761 889.208 16.0492 889.557 16.3295C889.909 16.6098 890.352 16.75 890.886 16.75ZM903.385 11.4034L901.845 11.6761C901.781 11.4792 901.679 11.2917 901.538 11.1136C901.402 10.9356 901.216 10.7898 900.982 10.6761C900.747 10.5625 900.453 10.5057 900.101 10.5057C899.62 10.5057 899.218 10.6136 898.896 10.8295C898.574 11.0417 898.413 11.3163 898.413 11.6534C898.413 11.9451 898.521 12.1799 898.737 12.358C898.953 12.536 899.302 12.6818 899.783 12.7955L901.169 13.1136C901.972 13.2992 902.571 13.5852 902.964 13.9716C903.358 14.358 903.555 14.8598 903.555 15.4773C903.555 16 903.404 16.4659 903.101 16.875C902.802 17.2803 902.383 17.5985 901.845 17.8295C901.311 18.0606 900.692 18.1761 899.987 18.1761C899.01 18.1761 898.213 17.9678 897.595 17.5511C896.978 17.1307 896.599 16.5341 896.459 15.7614L898.101 15.5114C898.203 15.9394 898.413 16.2633 898.732 16.483C899.05 16.6989 899.464 16.8068 899.976 16.8068C900.533 16.8068 900.978 16.6913 901.311 16.4602C901.644 16.2254 901.811 15.9394 901.811 15.6023C901.811 15.3295 901.709 15.1004 901.504 14.9148C901.304 14.7292 900.995 14.589 900.578 14.4943L899.101 14.1705C898.286 13.9848 897.684 13.6894 897.294 13.2841C896.908 12.8788 896.714 12.3655 896.714 11.7443C896.714 11.2292 896.858 10.7784 897.146 10.392C897.434 10.0057 897.832 9.70455 898.339 9.48864C898.847 9.26894 899.429 9.15909 900.084 9.15909C901.027 9.15909 901.769 9.36364 902.311 9.77273C902.853 10.178 903.211 10.7216 903.385 11.4034ZM957.355 18H955.491L959.679 6.36364H961.707L965.895 18H964.031L960.741 8.47727H960.651L957.355 18ZM957.668 13.4432H963.713V14.9205H957.668V13.4432ZM967.575 18V6.36364H969.274V10.6875H969.376C969.475 10.5057 969.617 10.2955 969.803 10.0568C969.988 9.81818 970.246 9.60985 970.575 9.43182C970.905 9.25 971.34 9.15909 971.882 9.15909C972.587 9.15909 973.215 9.33712 973.768 9.69318C974.321 10.0492 974.755 10.5625 975.07 11.233C975.388 11.9034 975.547 12.7102 975.547 13.6534C975.547 14.5966 975.39 15.4053 975.075 16.0795C974.761 16.75 974.329 17.267 973.78 17.6307C973.231 17.9905 972.604 18.1705 971.899 18.1705C971.369 18.1705 970.935 18.0814 970.598 17.9034C970.265 17.7254 970.003 17.517 969.814 17.2784C969.625 17.0398 969.479 16.8277 969.376 16.642H969.234V18H967.575ZM969.24 13.6364C969.24 14.25 969.329 14.7879 969.507 15.25C969.685 15.7121 969.943 16.0739 970.28 16.3352C970.617 16.5928 971.03 16.7216 971.518 16.7216C972.026 16.7216 972.45 16.5871 972.791 16.3182C973.132 16.0455 973.39 15.6761 973.564 15.2102C973.742 14.7443 973.831 14.2197 973.831 13.6364C973.831 13.0606 973.744 12.5436 973.57 12.0852C973.399 11.6269 973.142 11.2652 972.797 11C972.456 10.7348 972.03 10.6023 971.518 10.6023C971.026 10.6023 970.609 10.7292 970.268 10.983C969.931 11.2367 969.676 11.5909 969.501 12.0455C969.327 12.5 969.24 13.0303 969.24 13.6364ZM981.131 18.1761C980.313 18.1761 979.598 17.9886 978.989 17.6136C978.379 17.2386 977.905 16.714 977.568 16.0398C977.231 15.3655 977.062 14.5777 977.062 13.6761C977.062 12.7708 977.231 11.9792 977.568 11.3011C977.905 10.6231 978.379 10.0966 978.989 9.72159C979.598 9.34659 980.313 9.15909 981.131 9.15909C981.949 9.15909 982.663 9.34659 983.273 9.72159C983.883 10.0966 984.356 10.6231 984.693 11.3011C985.03 11.9792 985.199 12.7708 985.199 13.6761C985.199 14.5777 985.03 15.3655 984.693 16.0398C984.356 16.714 983.883 17.2386 983.273 17.6136C982.663 17.9886 981.949 18.1761 981.131 18.1761ZM981.136 16.75C981.667 16.75 982.106 16.6098 982.455 16.3295C982.803 16.0492 983.061 15.6761 983.227 15.2102C983.398 14.7443 983.483 14.2311 983.483 13.6705C983.483 13.1136 983.398 12.6023 983.227 12.1364C983.061 11.6667 982.803 11.2898 982.455 11.0057C982.106 10.7216 981.667 10.5795 981.136 10.5795C980.602 10.5795 980.159 10.7216 979.807 11.0057C979.458 11.2898 979.199 11.6667 979.028 12.1364C978.862 12.6023 978.778 13.1136 978.778 13.6705C978.778 14.2311 978.862 14.7443 979.028 15.2102C979.199 15.6761 979.458 16.0492 979.807 16.3295C980.159 16.6098 980.602 16.75 981.136 16.75ZM992.624 14.3807V9.27273H994.328V18H992.658V16.4886H992.567C992.366 16.9545 992.044 17.3428 991.601 17.6534C991.161 17.9602 990.614 18.1136 989.959 18.1136C989.398 18.1136 988.902 17.9905 988.47 17.7443C988.042 17.4943 987.705 17.125 987.459 16.6364C987.216 16.1477 987.095 15.5436 987.095 14.8239V9.27273H988.794V14.6193C988.794 15.214 988.959 15.6875 989.288 16.0398C989.618 16.392 990.046 16.5682 990.572 16.5682C990.891 16.5682 991.207 16.4886 991.521 16.3295C991.839 16.1705 992.103 15.9299 992.311 15.608C992.523 15.286 992.627 14.8769 992.624 14.3807ZM1000.68 9.27273V10.6364H995.918V9.27273H1000.68ZM997.196 7.18182H998.895V15.4375C998.895 15.767 998.944 16.0152 999.043 16.1818C999.141 16.3447 999.268 16.4564 999.423 16.517C999.582 16.5739 999.755 16.6023 999.94 16.6023C1000.08 16.6023 1000.2 16.5928 1000.3 16.5739C1000.4 16.5549 1000.48 16.5398 1000.54 16.5284L1000.84 17.9318C1000.75 17.9697 1000.61 18.0076 1000.42 18.0455C1000.24 18.0871 1000.01 18.1098 999.741 18.1136C999.295 18.1212 998.878 18.0417 998.491 17.875C998.105 17.7083 997.793 17.4508 997.554 17.1023C997.315 16.7538 997.196 16.3163 997.196 15.7898V7.18182ZM1053.51 18V6.36364H1057.77C1058.6 6.36364 1059.28 6.5 1059.83 6.77273C1060.37 7.04167 1060.77 7.4072 1061.04 7.86932C1061.31 8.32765 1061.44 8.8447 1061.44 9.42045C1061.44 9.9053 1061.36 10.3144 1061.18 10.6477C1061 10.9773 1060.76 11.2424 1060.46 11.4432C1060.17 11.6402 1059.84 11.7841 1059.48 11.875V11.9886C1059.87 12.0076 1060.25 12.1326 1060.62 12.3636C1060.99 12.5909 1061.29 12.9148 1061.54 13.3352C1061.78 13.7557 1061.9 14.267 1061.9 14.8693C1061.9 15.464 1061.76 15.9981 1061.48 16.4716C1061.2 16.9413 1060.77 17.3144 1060.19 17.5909C1059.62 17.8636 1058.87 18 1057.97 18H1053.51ZM1055.27 16.4943H1057.8C1058.64 16.4943 1059.25 16.3314 1059.61 16.0057C1059.97 15.6799 1060.15 15.2727 1060.15 14.7841C1060.15 14.4167 1060.06 14.0795 1059.88 13.7727C1059.69 13.4659 1059.43 13.2216 1059.08 13.0398C1058.74 12.858 1058.33 12.767 1057.87 12.767H1055.27V16.4943ZM1055.27 11.3977H1057.62C1058.01 11.3977 1058.37 11.322 1058.68 11.1705C1059 11.0189 1059.25 10.8068 1059.44 10.5341C1059.63 10.2576 1059.72 9.93182 1059.72 9.55682C1059.72 9.07576 1059.55 8.67235 1059.22 8.34659C1058.88 8.02083 1058.36 7.85795 1057.67 7.85795H1055.27V11.3977ZM1065.54 6.36364V18H1063.85V6.36364H1065.54ZM1071.51 18.1761C1070.69 18.1761 1069.97 17.9886 1069.36 17.6136C1068.75 17.2386 1068.28 16.714 1067.94 16.0398C1067.61 15.3655 1067.44 14.5777 1067.44 13.6761C1067.44 12.7708 1067.61 11.9792 1067.94 11.3011C1068.28 10.6231 1068.75 10.0966 1069.36 9.72159C1069.97 9.34659 1070.69 9.15909 1071.51 9.15909C1072.32 9.15909 1073.04 9.34659 1073.65 9.72159C1074.26 10.0966 1074.73 10.6231 1075.07 11.3011C1075.41 11.9792 1075.57 12.7708 1075.57 13.6761C1075.57 14.5777 1075.41 15.3655 1075.07 16.0398C1074.73 16.714 1074.26 17.2386 1073.65 17.6136C1073.04 17.9886 1072.32 18.1761 1071.51 18.1761ZM1071.51 16.75C1072.04 16.75 1072.48 16.6098 1072.83 16.3295C1073.18 16.0492 1073.44 15.6761 1073.6 15.2102C1073.77 14.7443 1073.86 14.2311 1073.86 13.6705C1073.86 13.1136 1073.77 12.6023 1073.6 12.1364C1073.44 11.6667 1073.18 11.2898 1072.83 11.0057C1072.48 10.7216 1072.04 10.5795 1071.51 10.5795C1070.98 10.5795 1070.53 10.7216 1070.18 11.0057C1069.83 11.2898 1069.57 11.6667 1069.4 12.1364C1069.24 12.6023 1069.15 13.1136 1069.15 13.6705C1069.15 14.2311 1069.24 14.7443 1069.4 15.2102C1069.57 15.6761 1069.83 16.0492 1070.18 16.3295C1070.53 16.6098 1070.98 16.75 1071.51 16.75ZM1081.13 21.4545C1080.44 21.4545 1079.84 21.3636 1079.34 21.1818C1078.84 21 1078.44 20.7595 1078.12 20.4602C1077.81 20.161 1077.57 19.8333 1077.42 19.4773L1078.88 18.875C1078.98 19.0417 1079.12 19.2178 1079.29 19.4034C1079.46 19.5928 1079.7 19.7538 1079.99 19.8864C1080.29 20.0189 1080.68 20.0852 1081.15 20.0852C1081.79 20.0852 1082.32 19.928 1082.74 19.6136C1083.16 19.303 1083.37 18.8068 1083.37 18.125V16.4091H1083.27C1083.16 16.5947 1083.02 16.8011 1082.82 17.0284C1082.63 17.2557 1082.37 17.4527 1082.04 17.6193C1081.71 17.786 1081.27 17.8693 1080.74 17.8693C1080.05 17.8693 1079.43 17.7083 1078.87 17.3864C1078.32 17.0606 1077.89 16.5814 1077.57 15.9489C1077.25 15.3125 1077.09 14.5303 1077.09 13.6023C1077.09 12.6742 1077.25 11.8788 1077.56 11.2159C1077.88 10.553 1078.31 10.0455 1078.87 9.69318C1079.42 9.33712 1080.05 9.15909 1080.75 9.15909C1081.29 9.15909 1081.73 9.25 1082.06 9.43182C1082.39 9.60985 1082.65 9.81818 1082.84 10.0568C1083.03 10.2955 1083.17 10.5057 1083.28 10.6875H1083.4V9.27273H1085.07V18.1932C1085.07 18.9432 1084.89 19.5587 1084.54 20.0398C1084.2 20.5208 1083.72 20.8769 1083.13 21.108C1082.54 21.339 1081.87 21.4545 1081.13 21.4545ZM1081.11 16.4602C1081.6 16.4602 1082.01 16.3466 1082.35 16.1193C1082.69 15.8883 1082.95 15.5587 1083.12 15.1307C1083.3 14.6989 1083.39 14.1818 1083.39 13.5795C1083.39 12.9924 1083.3 12.4754 1083.13 12.0284C1082.96 11.5814 1082.7 11.233 1082.36 10.983C1082.03 10.7292 1081.61 10.6023 1081.11 10.6023C1080.6 10.6023 1080.17 10.7348 1079.83 11C1079.49 11.2614 1079.24 11.6174 1079.06 12.0682C1078.89 12.5189 1078.81 13.0227 1078.81 13.5795C1078.81 14.1515 1078.89 14.6534 1079.07 15.0852C1079.24 15.517 1079.5 15.8542 1079.84 16.0966C1080.18 16.339 1080.61 16.4602 1081.11 16.4602ZM1138.29 18V6.36364H1142.44C1143.35 6.36364 1144.1 6.52841 1144.69 6.85795C1145.29 7.1875 1145.73 7.63826 1146.03 8.21023C1146.32 8.77841 1146.47 9.41856 1146.47 10.1307C1146.47 10.8466 1146.32 11.4905 1146.02 12.0625C1145.73 12.6307 1145.28 13.0814 1144.68 13.4148C1144.09 13.7443 1143.34 13.9091 1142.44 13.9091H1139.58V12.4205H1142.28C1142.85 12.4205 1143.31 12.322 1143.67 12.125C1144.03 11.9242 1144.29 11.6515 1144.45 11.3068C1144.62 10.9621 1144.7 10.5701 1144.7 10.1307C1144.7 9.69129 1144.62 9.30114 1144.45 8.96023C1144.29 8.61932 1144.02 8.35227 1143.66 8.15909C1143.31 7.96591 1142.84 7.86932 1142.25 7.86932H1140.05V18H1138.29ZM1150.85 18.1932C1150.3 18.1932 1149.8 18.0909 1149.35 17.8864C1148.91 17.678 1148.55 17.3769 1148.29 16.983C1148.03 16.589 1147.9 16.1061 1147.9 15.5341C1147.9 15.0417 1148 14.6364 1148.19 14.3182C1148.38 14 1148.63 13.7481 1148.96 13.5625C1149.28 13.3769 1149.64 13.2367 1150.04 13.142C1150.43 13.0473 1150.84 12.9754 1151.25 12.9261C1151.77 12.8655 1152.2 12.8163 1152.52 12.7784C1152.85 12.7367 1153.09 12.6705 1153.23 12.5795C1153.38 12.4886 1153.46 12.3409 1153.46 12.1364V12.0966C1153.46 11.6004 1153.32 11.2159 1153.04 10.9432C1152.76 10.6705 1152.35 10.5341 1151.8 10.5341C1151.22 10.5341 1150.77 10.661 1150.44 10.9148C1150.12 11.1648 1149.89 11.4432 1149.77 11.75L1148.17 11.3864C1148.36 10.8561 1148.64 10.428 1149 10.1023C1149.37 9.77273 1149.79 9.53409 1150.27 9.38636C1150.75 9.23485 1151.25 9.15909 1151.77 9.15909C1152.12 9.15909 1152.49 9.20076 1152.88 9.28409C1153.28 9.36364 1153.64 9.51136 1153.98 9.72727C1154.33 9.94318 1154.61 10.2519 1154.83 10.6534C1155.05 11.0511 1155.16 11.5682 1155.16 12.2045V18H1153.5V16.8068H1153.43C1153.32 17.0265 1153.16 17.2424 1152.94 17.4545C1152.72 17.6667 1152.44 17.8428 1152.09 17.983C1151.75 18.1231 1151.33 18.1932 1150.85 18.1932ZM1151.22 16.8295C1151.69 16.8295 1152.09 16.7367 1152.43 16.5511C1152.76 16.3655 1153.02 16.1231 1153.19 15.8239C1153.37 15.5208 1153.46 15.197 1153.46 14.8523V13.7273C1153.4 13.7879 1153.28 13.8447 1153.11 13.8977C1152.94 13.947 1152.74 13.9905 1152.52 14.0284C1152.3 14.0625 1152.09 14.0947 1151.88 14.125C1151.67 14.1515 1151.5 14.1742 1151.36 14.1932C1151.03 14.2348 1150.73 14.3049 1150.46 14.4034C1150.19 14.5019 1149.97 14.6439 1149.81 14.8295C1149.65 15.0114 1149.57 15.2538 1149.57 15.5568C1149.57 15.9773 1149.72 16.2955 1150.04 16.5114C1150.35 16.7235 1150.74 16.8295 1151.22 16.8295ZM1161.08 21.4545C1160.39 21.4545 1159.79 21.3636 1159.29 21.1818C1158.8 21 1158.39 20.7595 1158.08 20.4602C1157.76 20.161 1157.53 19.8333 1157.37 19.4773L1158.83 18.875C1158.93 19.0417 1159.07 19.2178 1159.24 19.4034C1159.42 19.5928 1159.65 19.7538 1159.95 19.8864C1160.25 20.0189 1160.63 20.0852 1161.1 20.0852C1161.74 20.0852 1162.28 19.928 1162.7 19.6136C1163.12 19.303 1163.33 18.8068 1163.33 18.125V16.4091H1163.22C1163.12 16.5947 1162.97 16.8011 1162.78 17.0284C1162.59 17.2557 1162.32 17.4527 1161.99 17.6193C1161.66 17.786 1161.22 17.8693 1160.69 17.8693C1160 17.8693 1159.38 17.7083 1158.83 17.3864C1158.28 17.0606 1157.84 16.5814 1157.52 15.9489C1157.2 15.3125 1157.04 14.5303 1157.04 13.6023C1157.04 12.6742 1157.2 11.8788 1157.51 11.2159C1157.83 10.553 1158.27 10.0455 1158.82 9.69318C1159.37 9.33712 1160 9.15909 1160.7 9.15909C1161.24 9.15909 1161.68 9.25 1162.01 9.43182C1162.35 9.60985 1162.61 9.81818 1162.79 10.0568C1162.98 10.2955 1163.13 10.5057 1163.23 10.6875H1163.36V9.27273H1165.02V18.1932C1165.02 18.9432 1164.85 19.5587 1164.5 20.0398C1164.15 20.5208 1163.68 20.8769 1163.08 21.108C1162.49 21.339 1161.82 21.4545 1161.08 21.4545ZM1161.07 16.4602C1161.55 16.4602 1161.97 16.3466 1162.3 16.1193C1162.64 15.8883 1162.9 15.5587 1163.08 15.1307C1163.25 14.6989 1163.34 14.1818 1163.34 13.5795C1163.34 12.9924 1163.26 12.4754 1163.08 12.0284C1162.91 11.5814 1162.65 11.233 1162.32 10.983C1161.98 10.7292 1161.56 10.6023 1161.07 10.6023C1160.55 10.6023 1160.13 10.7348 1159.79 11C1159.45 11.2614 1159.19 11.6174 1159.01 12.0682C1158.84 12.5189 1158.76 13.0227 1158.76 13.5795C1158.76 14.1515 1158.85 14.6534 1159.02 15.0852C1159.19 15.517 1159.45 15.8542 1159.79 16.0966C1160.14 16.339 1160.56 16.4602 1161.07 16.4602ZM1171.06 18.1761C1170.2 18.1761 1169.46 17.9924 1168.84 17.625C1168.22 17.2538 1167.74 16.733 1167.41 16.0625C1167.07 15.3883 1166.91 14.5985 1166.91 13.6932C1166.91 12.7992 1167.07 12.0114 1167.41 11.3295C1167.74 10.6477 1168.21 10.1155 1168.82 9.73295C1169.42 9.35038 1170.13 9.15909 1170.94 9.15909C1171.43 9.15909 1171.91 9.24053 1172.37 9.40341C1172.83 9.56629 1173.25 9.82197 1173.62 10.1705C1173.98 10.5189 1174.27 10.9716 1174.49 11.5284C1174.7 12.0814 1174.8 12.7538 1174.8 13.5455V14.1477H1167.87V12.875H1173.14C1173.14 12.428 1173.05 12.0322 1172.87 11.6875C1172.68 11.339 1172.43 11.0644 1172.1 10.8636C1171.77 10.6629 1171.39 10.5625 1170.95 10.5625C1170.47 10.5625 1170.06 10.6799 1169.7 10.9148C1169.35 11.1458 1169.08 11.4489 1168.88 11.8239C1168.69 12.1951 1168.6 12.5985 1168.6 13.0341V14.0284C1168.6 14.6117 1168.7 15.108 1168.91 15.517C1169.11 15.9261 1169.4 16.2386 1169.78 16.4545C1170.15 16.6667 1170.58 16.7727 1171.08 16.7727C1171.4 16.7727 1171.69 16.7273 1171.96 16.6364C1172.22 16.5417 1172.45 16.4015 1172.64 16.2159C1172.84 16.0303 1172.99 15.8011 1173.09 15.5284L1174.7 15.8182C1174.57 16.2917 1174.34 16.7064 1174 17.0625C1173.67 17.4148 1173.26 17.6894 1172.76 17.8864C1172.26 18.0795 1171.7 18.1761 1171.06 18.1761ZM1183.23 11.4034L1181.69 11.6761C1181.62 11.4792 1181.52 11.2917 1181.38 11.1136C1181.25 10.9356 1181.06 10.7898 1180.83 10.6761C1180.59 10.5625 1180.3 10.5057 1179.94 10.5057C1179.46 10.5057 1179.06 10.6136 1178.74 10.8295C1178.42 11.0417 1178.26 11.3163 1178.26 11.6534C1178.26 11.9451 1178.37 12.1799 1178.58 12.358C1178.8 12.536 1179.15 12.6818 1179.63 12.7955L1181.01 13.1136C1181.82 13.2992 1182.41 13.5852 1182.81 13.9716C1183.2 14.358 1183.4 14.8598 1183.4 15.4773C1183.4 16 1183.25 16.4659 1182.94 16.875C1182.65 17.2803 1182.23 17.5985 1181.69 17.8295C1181.15 18.0606 1180.54 18.1761 1179.83 18.1761C1178.85 18.1761 1178.06 17.9678 1177.44 17.5511C1176.82 17.1307 1176.44 16.5341 1176.3 15.7614L1177.94 15.5114C1178.05 15.9394 1178.26 16.2633 1178.58 16.483C1178.89 16.6989 1179.31 16.8068 1179.82 16.8068C1180.38 16.8068 1180.82 16.6913 1181.15 16.4602C1181.49 16.2254 1181.65 15.9394 1181.65 15.6023C1181.65 15.3295 1181.55 15.1004 1181.35 14.9148C1181.15 14.7292 1180.84 14.589 1180.42 14.4943L1178.94 14.1705C1178.13 13.9848 1177.53 13.6894 1177.14 13.2841C1176.75 12.8788 1176.56 12.3655 1176.56 11.7443C1176.56 11.2292 1176.7 10.7784 1176.99 10.392C1177.28 10.0057 1177.68 9.70455 1178.18 9.48864C1178.69 9.26894 1179.27 9.15909 1179.93 9.15909C1180.87 9.15909 1181.61 9.36364 1182.15 9.77273C1182.7 10.178 1183.05 10.7216 1183.23 11.4034ZM1245.88 10.1477H1244.11C1244.04 9.76894 1243.91 9.43561 1243.73 9.14773C1243.54 8.85985 1243.31 8.61553 1243.05 8.41477C1242.78 8.21401 1242.48 8.0625 1242.14 7.96023C1241.81 7.85795 1241.46 7.80682 1241.09 7.80682C1240.42 7.80682 1239.82 7.97538 1239.29 8.3125C1238.76 8.64962 1238.35 9.14394 1238.04 9.79545C1237.74 10.447 1237.59 11.2424 1237.59 12.1818C1237.59 13.1288 1237.74 13.928 1238.04 14.5795C1238.35 15.2311 1238.77 15.7235 1239.3 16.0568C1239.83 16.3902 1240.42 16.5568 1241.09 16.5568C1241.45 16.5568 1241.8 16.5076 1242.13 16.4091C1242.46 16.3068 1242.77 16.1572 1243.03 15.9602C1243.3 15.7633 1243.53 15.5227 1243.72 15.2386C1243.91 14.9508 1244.04 14.6212 1244.11 14.25L1245.88 14.2557C1245.79 14.8277 1245.6 15.3542 1245.33 15.8352C1245.06 16.3125 1244.71 16.7254 1244.29 17.0739C1243.87 17.4186 1243.39 17.6856 1242.85 17.875C1242.3 18.0644 1241.71 18.1591 1241.07 18.1591C1240.07 18.1591 1239.17 17.9205 1238.38 17.4432C1237.59 16.9621 1236.97 16.2746 1236.52 15.3807C1236.07 14.4867 1235.84 13.4205 1235.84 12.1818C1235.84 10.9394 1236.07 9.87311 1236.52 8.98295C1236.98 8.08901 1237.6 7.40341 1238.39 6.92614C1239.17 6.44508 1240.07 6.20455 1241.07 6.20455C1241.69 6.20455 1242.27 6.29356 1242.8 6.47159C1243.34 6.64583 1243.82 6.90341 1244.25 7.24432C1244.68 7.58144 1245.03 7.99432 1245.31 8.48295C1245.59 8.9678 1245.78 9.52273 1245.88 10.1477ZM1251.52 18.1761C1250.7 18.1761 1249.99 17.9886 1249.38 17.6136C1248.77 17.2386 1248.3 16.714 1247.96 16.0398C1247.62 15.3655 1247.45 14.5777 1247.45 13.6761C1247.45 12.7708 1247.62 11.9792 1247.96 11.3011C1248.3 10.6231 1248.77 10.0966 1249.38 9.72159C1249.99 9.34659 1250.7 9.15909 1251.52 9.15909C1252.34 9.15909 1253.05 9.34659 1253.66 9.72159C1254.27 10.0966 1254.75 10.6231 1255.08 11.3011C1255.42 11.9792 1255.59 12.7708 1255.59 13.6761C1255.59 14.5777 1255.42 15.3655 1255.08 16.0398C1254.75 16.714 1254.27 17.2386 1253.66 17.6136C1253.05 17.9886 1252.34 18.1761 1251.52 18.1761ZM1251.53 16.75C1252.06 16.75 1252.5 16.6098 1252.85 16.3295C1253.19 16.0492 1253.45 15.6761 1253.62 15.2102C1253.79 14.7443 1253.87 14.2311 1253.87 13.6705C1253.87 13.1136 1253.79 12.6023 1253.62 12.1364C1253.45 11.6667 1253.19 11.2898 1252.85 11.0057C1252.5 10.7216 1252.06 10.5795 1251.53 10.5795C1250.99 10.5795 1250.55 10.7216 1250.2 11.0057C1249.85 11.2898 1249.59 11.6667 1249.42 12.1364C1249.25 12.6023 1249.17 13.1136 1249.17 13.6705C1249.17 14.2311 1249.25 14.7443 1249.42 15.2102C1249.59 15.6761 1249.85 16.0492 1250.2 16.3295C1250.55 16.6098 1250.99 16.75 1251.53 16.75ZM1259.18 12.8182V18H1257.49V9.27273H1259.12V10.6932H1259.22C1259.43 10.2311 1259.74 9.85985 1260.17 9.57955C1260.6 9.29924 1261.14 9.15909 1261.8 9.15909C1262.39 9.15909 1262.91 9.28409 1263.36 9.53409C1263.81 9.7803 1264.15 10.1477 1264.4 10.6364C1264.65 11.125 1264.77 11.7292 1264.77 12.4489V18H1263.07V12.6534C1263.07 12.0208 1262.91 11.5265 1262.58 11.1705C1262.25 10.8106 1261.79 10.6307 1261.22 10.6307C1260.82 10.6307 1260.47 10.7159 1260.17 10.8864C1259.86 11.0568 1259.62 11.3068 1259.45 11.6364C1259.27 11.9621 1259.18 12.3561 1259.18 12.8182ZM1271.12 9.27273V10.6364H1266.36V9.27273H1271.12ZM1267.63 7.18182H1269.33V15.4375C1269.33 15.767 1269.38 16.0152 1269.48 16.1818C1269.58 16.3447 1269.71 16.4564 1269.86 16.517C1270.02 16.5739 1270.19 16.6023 1270.38 16.6023C1270.51 16.6023 1270.63 16.5928 1270.74 16.5739C1270.84 16.5549 1270.92 16.5398 1270.97 16.5284L1271.28 17.9318C1271.18 17.9697 1271.04 18.0076 1270.86 18.0455C1270.68 18.0871 1270.45 18.1098 1270.18 18.1136C1269.73 18.1212 1269.32 18.0417 1268.93 17.875C1268.54 17.7083 1268.23 17.4508 1267.99 17.1023C1267.75 16.7538 1267.63 16.3163 1267.63 15.7898V7.18182ZM1275.54 18.1932C1274.99 18.1932 1274.49 18.0909 1274.04 17.8864C1273.59 17.678 1273.24 17.3769 1272.98 16.983C1272.72 16.589 1272.59 16.1061 1272.59 15.5341C1272.59 15.0417 1272.69 14.6364 1272.88 14.3182C1273.07 14 1273.32 13.7481 1273.64 13.5625C1273.97 13.3769 1274.33 13.2367 1274.72 13.142C1275.12 13.0473 1275.53 12.9754 1275.94 12.9261C1276.46 12.8655 1276.89 12.8163 1277.21 12.7784C1277.54 12.7367 1277.77 12.6705 1277.92 12.5795C1278.07 12.4886 1278.14 12.3409 1278.14 12.1364V12.0966C1278.14 11.6004 1278 11.2159 1277.72 10.9432C1277.45 10.6705 1277.03 10.5341 1276.48 10.5341C1275.91 10.5341 1275.46 10.661 1275.13 10.9148C1274.81 11.1648 1274.58 11.4432 1274.46 11.75L1272.86 11.3864C1273.05 10.8561 1273.33 10.428 1273.69 10.1023C1274.06 9.77273 1274.48 9.53409 1274.96 9.38636C1275.43 9.23485 1275.94 9.15909 1276.46 9.15909C1276.81 9.15909 1277.18 9.20076 1277.57 9.28409C1277.96 9.36364 1278.33 9.51136 1278.67 9.72727C1279.02 9.94318 1279.3 10.2519 1279.52 10.6534C1279.74 11.0511 1279.85 11.5682 1279.85 12.2045V18H1278.19V16.8068H1278.12C1278.01 17.0265 1277.85 17.2424 1277.63 17.4545C1277.41 17.6667 1277.12 17.8428 1276.78 17.983C1276.44 18.1231 1276.02 18.1932 1275.54 18.1932ZM1275.91 16.8295C1276.38 16.8295 1276.78 16.7367 1277.12 16.5511C1277.45 16.3655 1277.71 16.1231 1277.88 15.8239C1278.06 15.5208 1278.15 15.197 1278.15 14.8523V13.7273C1278.09 13.7879 1277.97 13.8447 1277.8 13.8977C1277.63 13.947 1277.43 13.9905 1277.21 14.0284C1276.99 14.0625 1276.78 14.0947 1276.57 14.125C1276.36 14.1515 1276.19 14.1742 1276.05 14.1932C1275.72 14.2348 1275.42 14.3049 1275.14 14.4034C1274.87 14.5019 1274.66 14.6439 1274.5 14.8295C1274.34 15.0114 1274.26 15.2538 1274.26 15.5568C1274.26 15.9773 1274.41 16.2955 1274.72 16.5114C1275.03 16.7235 1275.43 16.8295 1275.91 16.8295ZM1285.79 18.1761C1284.94 18.1761 1284.21 17.9848 1283.61 17.6023C1283 17.2159 1282.53 16.6837 1282.21 16.0057C1281.88 15.3277 1281.72 14.5511 1281.72 13.6761C1281.72 12.7898 1281.89 12.0076 1282.22 11.3295C1282.55 10.6477 1283.02 10.1155 1283.63 9.73295C1284.23 9.35038 1284.95 9.15909 1285.77 9.15909C1286.43 9.15909 1287.02 9.2822 1287.54 9.52841C1288.06 9.77083 1288.48 10.1117 1288.8 10.5511C1289.12 10.9905 1289.31 11.5038 1289.37 12.0909H1287.72C1287.63 11.6818 1287.42 11.3295 1287.09 11.0341C1286.77 10.7386 1286.34 10.5909 1285.8 10.5909C1285.32 10.5909 1284.91 10.7159 1284.55 10.9659C1284.2 11.2121 1283.93 11.5644 1283.73 12.0227C1283.53 12.4773 1283.43 13.0152 1283.43 13.6364C1283.43 14.2727 1283.53 14.822 1283.72 15.2841C1283.92 15.7462 1284.19 16.1042 1284.54 16.358C1284.9 16.6117 1285.32 16.7386 1285.8 16.7386C1286.12 16.7386 1286.41 16.6799 1286.67 16.5625C1286.94 16.4413 1287.16 16.2689 1287.34 16.0455C1287.52 15.822 1287.65 15.553 1287.72 15.2386H1289.37C1289.31 15.803 1289.13 16.3068 1288.82 16.75C1288.51 17.1932 1288.1 17.5417 1287.59 17.7955C1287.08 18.0492 1286.48 18.1761 1285.79 18.1761ZM1295.26 9.27273V10.6364H1290.5V9.27273H1295.26ZM1291.77 7.18182H1293.47V15.4375C1293.47 15.767 1293.52 16.0152 1293.62 16.1818C1293.72 16.3447 1293.85 16.4564 1294 16.517C1294.16 16.5739 1294.33 16.6023 1294.52 16.6023C1294.65 16.6023 1294.77 16.5928 1294.88 16.5739C1294.98 16.5549 1295.06 16.5398 1295.12 16.5284L1295.42 17.9318C1295.32 17.9697 1295.18 18.0076 1295 18.0455C1294.82 18.0871 1294.59 18.1098 1294.32 18.1136C1293.87 18.1212 1293.46 18.0417 1293.07 17.875C1292.68 17.7083 1292.37 17.4508 1292.13 17.1023C1291.89 16.7538 1291.77 16.3163 1291.77 15.7898V7.18182Z" fill="#161616"/>
<rect width="62" height="24" fill="#FAFAFA"/>
<path d="M37.043 24C38.2521 24 39.3121 23.7815 40.2229 23.3446C41.1337 22.9077 41.8482 22.3069 42.3664 21.5423C42.8847 20.7776 43.1438 19.896 43.1438 18.8973C43.1438 16.5722 41.7462 14.9649 38.951 14.0754L35.7239 13.0689C35.0958 12.8661 34.6168 12.5852 34.287 12.2263C33.973 11.8518 33.8159 11.4226 33.8159 10.9389C33.8159 10.2991 34.0593 9.78414 34.5461 9.39402C35.0487 8.9883 35.7082 8.78544 36.5248 8.78544C37.4356 8.78544 38.2364 9.02731 38.9274 9.51105C39.6183 9.97919 40.1366 10.6502 40.482 11.5241L43.1202 10.3537C42.6491 9.04291 41.8247 7.9896 40.6469 7.19376C39.4849 6.39792 38.1108 6 36.5248 6C35.3784 6 34.3577 6.21847 33.4626 6.6554C32.5832 7.07672 31.8923 7.6697 31.3898 8.43433C30.9029 9.19896 30.6595 10.0806 30.6595 11.0793C30.6595 12.2185 31.005 13.2094 31.696 14.052C32.3869 14.8791 33.4155 15.5111 34.7817 15.948L38.1501 17.0247C38.7625 17.2276 39.2179 17.4928 39.5163 17.8205C39.8303 18.1482 39.9874 18.5696 39.9874 19.0845C39.9874 19.7243 39.7283 20.2393 39.2101 20.6294C38.7075 21.0195 38.0402 21.2146 37.2079 21.2146C36.2029 21.2146 35.2999 20.9337 34.499 20.3719C33.6982 19.7945 33.0857 19.0065 32.6617 18.0078L30 19.1547C30.3141 20.1222 30.8087 20.9727 31.484 21.7061C32.1749 22.4239 32.9915 22.9857 33.9337 23.3914C34.8916 23.7971 35.928 24 37.043 24Z" fill="#1E1D25"/>
<path d="M49.5408 24C51.2054 24 52.5402 23.4538 53.5452 22.3615V23.7191H56.466V15.2458C56.466 14.3563 56.2383 13.5683 55.7829 12.8817C55.3275 12.1951 54.6994 11.6645 53.8985 11.29C53.1134 10.8999 52.1947 10.7048 51.1426 10.7048C49.8549 10.7048 48.7085 11.0091 47.7035 11.6177C46.6985 12.2263 46.0076 13.0299 45.6307 14.0286L48.1511 15.2458C48.3866 14.6684 48.7557 14.2081 49.2582 13.8648C49.7607 13.5059 50.3496 13.3264 51.0248 13.3264C51.7315 13.3264 52.2968 13.5137 52.7208 13.8882C53.1605 14.2471 53.3803 14.6996 53.3803 15.2458V15.6671L49.5644 16.2757C48.0569 16.5254 46.9419 17.0013 46.2195 17.7035C45.4972 18.4057 45.136 19.2874 45.136 20.3485C45.136 21.472 45.5365 22.3615 46.3373 23.0169C47.1382 23.6723 48.206 24 49.5408 24ZM48.3395 20.2315C48.3395 19.342 48.9441 18.7802 50.1533 18.5462L53.3803 18.0078V18.5228C53.3803 19.3966 53.0741 20.1378 52.4617 20.7464C51.8649 21.355 51.0798 21.6593 50.1061 21.6593C49.5879 21.6593 49.1639 21.5345 48.8342 21.2848C48.5044 21.0195 48.3395 20.6684 48.3395 20.2315Z" fill="#1E1D25"/>
<path d="M59.318 23.7191H62.4038V16.6268C62.4038 15.6593 62.6707 14.9103 63.2046 14.3797C63.7543 13.8336 64.4609 13.5605 65.3246 13.5605H66.4317V10.8453H65.6779C64.8928 10.8453 64.2018 10.9857 63.6051 11.2666C63.0084 11.5475 62.5451 12.0546 62.2153 12.788V10.9857H59.318V23.7191Z" fill="#1E1D25"/>
<path d="M68.1282 23.7191H71.2139V19.8335L72.8628 18.0546L76.4667 23.7191H80L75.1712 16.1118L79.9058 10.9857H76.0663L71.2139 16.0416V6H68.1282V23.7191Z" fill="#1E1D25"/>
<path d="M19.7161 23.7161C19.7161 12.8722 10.8438 4 0 4C0 4 3.52073 16.2521 0 23.7161C7.7456 23.7161 19.7161 23.7161 19.7161 23.7161Z" fill="#4F46E5"/>
<path d="M22.3449 23.7161C22.3449 16.4868 16.4301 10.572 9.20084 10.572C9.20084 10.572 11.548 18.7401 9.20084 23.7161C14.3646 23.7161 22.3449 23.7161 22.3449 23.7161Z" fill="#2DD4BF"/>
</svg>
